<svg id="visual" viewBox="0 0 900 600" width="900" height="600" xmlns="http://www.w3.org/2000/svg" xmlns:xlink="http://www.w3.org/1999/xlink" version="1.1"><g transform="translate(32.58888945882916 566.5148896020141)"><path d="M161.7 -277.4C207.8 -253.5 242 -206.5 265.3 -156.4C288.5 -106.3 300.8 -53.2 296.7 -2.3C292.7 48.5 272.3 97 257.7 162C243 226.9 234 308.3 192 355.2C150 402.1 75 414.6 18.7 382.1C-37.5 349.6 -75 272.2 -136.1 236.3C-197.1 200.4 -281.7 206 -324 173.5C-366.2 141 -366.1 70.5 -359.3 3.9C-352.5 -62.7 -339.1 -125.3 -313.3 -186.2C-287.4 -247.2 -249.2 -306.3 -194.9 -325.5C-140.7 -344.6 -70.3 -323.8 -6.3 -313C57.8 -302.2 115.7 -301.3 161.7 -277.4" fill="#ff0044"></path></g></svg>