<svg width="900" height="600" viewBox="0 0 900 600" fill="none" xmlns="http://www.w3.org/2000/svg">
<g clip-path="url(#clip0_661_54)">
<path d="M900 164C890.72 162.126 881.37 160.251 877.882 143.934C874.393 127.562 876.695 96.7462 870.416 94.7617C864.206 92.722 849.483 119.513 836.435 132.468C823.317 145.423 811.874 144.596 811.804 132.744C811.665 120.947 822.899 98.1244 818.363 93.4387C813.758 88.7529 793.453 102.204 781.103 106.063C768.753 109.921 764.427 104.243 754.309 101.983C744.122 99.723 728.074 100.936 729.19 93.163C730.237 85.3903 748.448 68.6871 765.334 55.8427C782.15 43.0534 797.71 34.123 801.478 29.4924C805.245 24.917 797.291 24.5862 776.707 24.035C756.124 23.4286 722.911 22.6017 706.723 18.5224C690.605 14.4982 691.512 7.22151 692.419 0H900V164Z" fill="#FFD6BF"/>
<path d="M899.999 109.315C893.789 108.102 887.579 106.834 885.276 95.9745C882.904 85.0595 884.439 64.4975 880.322 63.1744C876.135 61.7963 866.297 79.6571 857.575 88.3119C848.853 96.9667 841.248 96.4155 841.178 88.5324C841.108 80.6494 848.644 65.4346 845.574 62.2924C842.504 59.1502 828.967 68.1358 820.734 70.6716C812.5 73.2625 809.64 69.5139 802.871 67.9704C796.103 66.482 785.427 67.2538 786.125 62.1271C786.823 56.9452 798.964 45.7546 810.198 37.2101C821.432 28.6655 831.828 22.7671 834.34 19.68C836.852 16.5929 831.549 16.3724 817.803 15.9866C804.057 15.6007 781.939 15.0494 771.193 12.3482C760.378 9.64706 761.006 4.85109 761.634 0H899.999V109.315Z" fill="#FF8D4E"/>
<path d="M900.001 54.685C896.931 54.0235 893.791 53.4171 892.605 47.9597C891.489 42.5022 892.256 32.2487 890.163 31.5872C888.07 30.9257 883.185 39.8561 878.79 44.156C874.464 48.4558 870.626 48.1802 870.626 44.2662C870.556 40.2971 874.324 32.6897 872.789 31.1462C871.254 29.6027 864.486 34.0679 860.369 35.3358C856.252 36.6588 854.787 34.7294 851.438 34.0128C848.019 33.241 842.716 33.6269 843.065 31.036C843.414 28.445 849.484 22.8773 855.136 18.6326C860.718 14.3328 865.881 11.356 867.137 9.81244C868.393 8.32403 865.742 8.21378 858.904 7.99328C852.066 7.8279 840.971 7.55227 835.599 6.17412C830.226 4.85109 830.505 2.42555 830.784 0H900.001V54.685Z" fill="#FF6600"/>
<path d="M0 300C4.04706 365.849 8.09412 431.697 25.0918 419.798C42.0894 407.899 72.0376 318.151 82.3287 308.773C92.6198 299.395 83.3694 370.286 89.8447 393.479C96.2044 416.672 118.29 392.168 117.712 404.471C117.018 416.773 93.6605 465.983 99.7889 473.849C106.033 481.714 141.647 448.235 171.017 431.697C200.272 415.16 223.398 415.664 218.079 431.496C212.875 447.328 179.343 478.689 191.252 484.84C203.162 491.092 260.515 472.134 267.222 477.681C273.928 483.227 230.22 513.076 210.794 530.319C191.484 547.462 196.571 551.899 198.768 557.244C200.85 562.689 200.156 569.042 223.86 576.303C247.564 583.563 295.782 591.832 344 600H0V300Z" fill="black"/>
<path d="M0 400.034C2.6595 443.899 5.43462 487.866 16.7664 479.899C28.0982 471.933 47.9866 412.134 54.9244 405.882C61.7466 399.63 55.6182 446.924 59.8965 462.353C64.1748 477.781 78.8598 461.445 78.3973 469.613C78.0504 477.882 62.4403 510.655 66.603 515.899C70.6501 521.143 94.4699 498.756 114.011 487.765C133.553 476.773 148.932 477.076 145.347 487.664C141.878 498.252 119.562 519.126 127.54 523.26C135.403 527.395 173.677 514.79 178.186 518.42C182.696 522.151 153.441 542.017 140.606 553.513C127.656 565.008 131.009 567.933 132.512 571.563C133.9 575.092 133.437 579.328 149.279 584.168C165.004 589.008 197.15 594.555 229.295 600H0V400.034Z" fill="black"/>
<path d="M0 499.966C1.38756 521.95 2.6595 543.933 8.32538 539.899C13.9913 535.966 24.0511 506.017 27.4044 502.891C30.8733 499.765 27.7513 523.462 29.9482 531.126C32.0296 538.891 39.4299 530.723 39.1987 534.857C38.9674 538.891 31.2202 555.328 33.3015 557.95C35.3829 560.571 47.1771 549.378 57.0057 543.933C66.7187 538.387 74.4659 538.588 72.7314 543.832C70.997 549.076 59.7808 559.563 63.7123 561.58C67.7593 563.698 86.8383 557.345 89.0353 559.261C91.3479 561.076 76.7785 571.059 70.3032 576.807C63.8279 582.454 65.5624 583.966 66.2561 585.782C66.9499 587.597 66.7187 589.714 74.5815 592.134C82.56 594.555 98.6326 597.277 114.705 600H0V499.966Z" fill="black"/>
</g>
<defs>
<clipPath id="clip0_661_54">
<rect width="900" height="600" fill="white"/>
</clipPath>
</defs>
</svg>
