<svg id="visual" viewBox="0 0 900 600" width="900" height="600" xmlns="http://www.w3.org/2000/svg" xmlns:xlink="http://www.w3.org/1999/xlink" version="1.1"><path d="M0 525L18.8 524.7C37.7 524.3 75.3 523.7 112.8 519.5C150.3 515.3 187.7 507.7 225.2 507.8C262.7 508 300.3 516 337.8 520.7C375.3 525.3 412.7 526.7 450.2 528.3C487.7 530 525.3 532 562.8 532.2C600.3 532.3 637.7 530.7 675.2 530.2C712.7 529.7 750.3 530.3 787.8 523.7C825.3 517 862.7 503 881.3 496L900 489L900 601L881.3 601C862.7 601 825.3 601 787.8 601C750.3 601 712.7 601 675.2 601C637.7 601 600.3 601 562.8 601C525.3 601 487.7 601 450.2 601C412.7 601 375.3 601 337.8 601C300.3 601 262.7 601 225.2 601C187.7 601 150.3 601 112.8 601C75.3 601 37.7 601 18.8 601L0 601Z" fill="#ff0044" stroke-linecap="round" stroke-linejoin="miter"></path></svg>